<?xml version="1.0" standalone="no"?>
<!DOCTYPE svg PUBLIC "-//W3C//DTD SVG 20010904//EN"
 "http://www.w3.org/TR/2001/REC-SVG-20010904/DTD/svg10.dtd">
<svg version="1.0" xmlns="http://www.w3.org/2000/svg"
 width="670.000000pt" height="666.000000pt" viewBox="0 0 670.000000 666.000000"
 preserveAspectRatio="xMidYMid meet">

<g transform="translate(0.000000,666.000000) scale(0.100000,-0.100000)"
fill="#000000" stroke="none">
<path d="M3184 6510 c-3 -2 -34 -3 -69 -2 -36 2 -70 0 -77 -5 -7 -4 -26 -9
-43 -10 -16 -1 -50 -4 -75 -7 -25 -3 -60 -5 -78 -5 -19 -1 -31 -5 -27 -11 3
-6 -1 -7 -10 -4 -8 4 -22 1 -30 -6 -8 -6 -19 -9 -25 -5 -6 4 -16 3 -23 -2 -7
-5 -28 -10 -47 -12 -19 -1 -37 -6 -41 -12 -4 -6 -21 -8 -43 -4 -24 5 -36 3
-36 -4 0 -6 -8 -11 -18 -11 -10 0 -23 -5 -29 -11 -6 -6 -28 -11 -48 -11 -21 0
-54 -9 -74 -20 -20 -11 -58 -23 -86 -25 -29 -3 -54 -12 -61 -21 -7 -9 -20 -17
-31 -18 -54 -3 -63 -5 -63 -18 0 -8 -12 -17 -27 -21 -15 -3 -39 -15 -54 -26
-15 -10 -39 -19 -53 -19 -15 0 -29 -7 -32 -15 -4 -9 -11 -15 -18 -14 -28 4
-77 -14 -72 -27 3 -8 0 -11 -10 -7 -8 3 -20 -2 -27 -11 -13 -18 -52 -41 -144
-87 -35 -17 -63 -35 -63 -40 0 -5 -9 -9 -21 -9 -31 0 -79 -32 -79 -52 0 -10
-4 -19 -10 -19 -5 -1 -14 -3 -20 -4 -5 -1 -14 -3 -20 -4 -5 0 -10 -8 -10 -16
0 -8 -6 -15 -13 -15 -6 0 -32 -18 -56 -40 -24 -22 -47 -40 -52 -40 -5 0 -9 -4
-9 -10 0 -5 -4 -10 -9 -10 -5 0 -23 -13 -39 -30 -17 -16 -38 -30 -46 -30 -9 0
-16 -5 -16 -11 0 -16 -26 -39 -45 -39 -8 0 -20 -12 -25 -26 -6 -14 -16 -24
-23 -21 -11 4 -57 -40 -57 -55 0 -4 -13 -15 -30 -25 -16 -9 -30 -21 -30 -25 0
-8 -82 -91 -119 -121 -12 -10 -19 -22 -16 -27 3 -6 -1 -10 -9 -10 -9 0 -16 -7
-16 -15 0 -9 -9 -15 -25 -15 -20 0 -25 -5 -25 -25 0 -13 -13 -40 -30 -58 -17
-19 -30 -42 -30 -51 0 -9 -4 -16 -10 -16 -5 0 -10 -10 -10 -22 0 -12 -9 -32
-21 -44 -11 -12 -22 -28 -23 -35 -10 -49 -22 -76 -43 -92 -13 -10 -23 -24 -23
-32 0 -7 -3 -15 -7 -17 -10 -4 -77 -107 -86 -130 -3 -10 -11 -18 -16 -18 -10
0 -61 -97 -61 -117 0 -7 -3 -13 -8 -13 -7 0 -17 -16 -47 -78 -8 -18 -22 -35
-30 -39 -8 -3 -15 -18 -15 -33 0 -15 -6 -33 -14 -39 -14 -12 -32 -67 -28 -83
1 -5 -3 -8 -9 -8 -6 0 -8 -8 -4 -19 3 -11 1 -22 -4 -25 -6 -4 -8 -13 -5 -20 3
-8 0 -17 -6 -21 -8 -5 -8 -10 0 -20 8 -10 6 -23 -10 -51 -11 -21 -20 -46 -20
-55 0 -9 -7 -22 -15 -29 -17 -14 -20 -46 -5 -55 8 -5 8 -11 0 -20 -8 -10 -8
-15 0 -20 8 -5 7 -12 -3 -23 -8 -10 -14 -33 -13 -52 1 -19 -4 -48 -10 -65 -6
-16 -10 -40 -8 -53 2 -13 -3 -37 -12 -53 -12 -24 -13 -34 -3 -45 9 -11 8 -14
-5 -14 -18 0 -22 -15 -6 -25 8 -5 7 -12 -2 -22 -8 -9 -14 -46 -15 -87 -1 -39
-3 -109 -5 -156 -3 -47 -1 -94 3 -106 4 -11 2 -45 -5 -75 -9 -42 -14 -154 -6
-154 2 0 9 -36 14 -67 2 -15 0 -47 -4 -70 -7 -34 -5 -45 7 -51 13 -8 12 -11
-3 -28 -14 -15 -14 -19 -3 -19 10 0 15 -10 14 -27 -1 -16 2 -36 7 -45 5 -10 4
-19 -2 -23 -6 -4 -2 -18 10 -36 12 -16 19 -33 16 -37 -3 -5 1 -20 8 -34 10
-19 11 -29 3 -37 -8 -8 -6 -11 7 -11 12 0 17 -7 15 -22 -2 -13 0 -29 4 -35 5
-8 4 -13 -2 -13 -18 0 -12 -25 8 -40 11 -7 18 -17 15 -22 -3 -4 0 -8 6 -8 8 0
9 -14 4 -45 -5 -34 -3 -50 9 -63 8 -9 21 -35 28 -57 7 -22 19 -47 26 -56 7 -8
13 -29 13 -46 0 -18 9 -38 24 -53 14 -12 28 -35 31 -51 4 -16 11 -31 16 -34 5
-4 9 -17 9 -31 0 -13 5 -24 10 -24 6 0 10 -8 10 -17 0 -9 7 -24 15 -33 8 -9
18 -36 21 -61 4 -24 13 -48 20 -54 8 -5 15 -19 17 -31 3 -19 11 -33 50 -75 9
-10 17 -26 17 -34 0 -8 4 -15 8 -15 8 0 46 -60 47 -73 0 -5 12 -21 26 -35 23
-24 45 -65 37 -69 -2 0 12 -15 29 -32 18 -17 33 -40 33 -51 0 -11 6 -20 13
-20 6 0 19 -15 26 -32 8 -18 23 -40 33 -48 11 -8 20 -22 21 -31 2 -9 15 -33
30 -52 15 -20 26 -42 25 -49 -2 -7 7 -17 20 -23 12 -5 22 -18 22 -27 0 -18 33
-42 44 -31 3 3 6 -3 6 -14 0 -15 8 -22 30 -26 21 -5 30 -12 30 -27 0 -11 6
-20 13 -20 15 0 96 -40 82 -40 -6 0 6 -10 25 -22 19 -13 43 -33 53 -45 10 -13
23 -21 27 -18 5 3 14 -4 20 -15 6 -11 15 -20 21 -20 6 0 29 -17 51 -37 22 -21
44 -37 49 -36 5 2 16 -11 24 -27 9 -17 22 -30 30 -30 9 0 23 -10 33 -21 9 -12
35 -30 57 -40 22 -10 34 -19 27 -19 -7 0 -11 -4 -7 -10 3 -5 12 -7 19 -4 8 3
17 1 21 -5 3 -6 12 -11 19 -11 8 0 30 -16 51 -35 21 -19 42 -32 47 -29 4 3 8
1 8 -5 0 -6 7 -8 15 -5 8 3 21 0 29 -8 37 -32 46 -38 65 -38 11 0 22 -4 26
-10 3 -5 12 -7 20 -3 9 3 15 -1 15 -10 0 -9 13 -18 33 -22 17 -4 42 -16 53
-27 12 -10 41 -21 65 -23 23 -3 45 -8 48 -13 3 -5 27 -17 53 -28 27 -10 48
-22 48 -26 0 -5 9 -8 19 -8 11 0 22 -4 25 -9 3 -5 14 -7 24 -4 10 2 24 -3 31
-11 8 -9 21 -16 31 -16 10 0 20 -6 23 -13 3 -9 16 -12 36 -9 20 3 31 0 31 -8
0 -7 8 -9 19 -5 11 3 23 0 28 -7 8 -12 33 -18 78 -19 11 0 23 -5 26 -11 4 -7
20 -12 36 -13 45 -2 93 -16 93 -27 0 -7 14 -8 35 -5 19 3 37 1 41 -4 3 -5 14
-7 25 -4 12 4 19 2 19 -7 0 -10 3 -9 10 2 7 10 12 12 18 4 10 -15 51 -24 58
-13 3 5 11 6 17 2 6 -4 26 -6 43 -5 21 2 34 -3 38 -13 6 -17 36 -21 36 -5 0
12 38 9 58 -4 7 -4 18 -3 25 2 19 15 78 20 83 7 5 -13 161 -14 182 -2 7 5 12
3 12 -4 0 -8 3 -9 13 0 8 6 17 8 21 4 10 -11 36 -12 36 -2 0 11 41 12 59 0 8
-5 28 -5 49 1 25 7 37 6 42 -2 5 -8 11 -8 21 2 8 7 30 13 49 13 19 -1 40 3 47
8 7 5 17 6 23 2 5 -3 10 -3 10 2 0 4 17 9 37 10 21 1 39 7 41 13 3 7 9 7 19
-2 12 -10 17 -9 25 6 7 12 20 17 41 16 41 -3 97 10 97 21 0 5 15 9 34 9 19 0
37 4 40 9 3 4 20 11 38 15 60 11 138 39 133 46 -3 4 2 10 10 14 8 3 15 1 15
-4 0 -6 7 -10 15 -10 8 0 15 6 15 13 0 18 46 42 76 39 14 -1 23 2 19 7 -3 5
-1 12 4 15 5 4 12 2 16 -4 4 -6 12 -5 21 5 9 8 24 15 35 15 11 0 22 7 25 15 4
10 13 13 25 10 13 -4 18 -2 17 5 -2 7 19 20 46 29 28 10 52 23 54 29 2 7 8 10
13 6 5 -3 9 -1 9 4 0 17 112 66 156 67 48 3 94 27 94 50 0 13 18 20 43 16 4 0
7 6 7 14 0 8 7 15 16 15 9 0 35 19 57 43 23 23 55 49 70 57 16 8 40 25 53 37
14 13 30 23 36 23 6 0 8 9 5 20 -4 16 0 20 19 20 14 0 27 7 31 15 3 9 17 22
32 30 14 8 41 28 60 45 18 16 36 30 40 30 3 0 30 23 59 50 30 28 58 50 63 50
5 0 9 5 9 10 0 6 20 25 45 42 25 18 43 38 41 44 -3 7 6 15 20 18 14 4 22 10
20 15 -7 11 67 91 83 91 7 0 10 4 7 8 -2 4 9 14 25 21 16 7 29 18 29 25 0 7
16 26 35 43 19 17 35 36 35 41 0 5 6 15 14 21 8 7 22 28 31 48 9 19 26 38 36
40 10 3 19 14 19 24 0 11 4 27 9 37 5 9 12 24 16 32 12 30 75 127 104 159 12
14 19 32 16 41 -4 12 1 19 16 23 11 3 18 10 15 16 -9 14 4 62 15 55 5 -3 9 6
9 21 0 14 7 42 15 62 8 19 15 44 15 54 0 10 9 23 20 29 15 8 20 21 20 50 0 21
4 41 9 44 5 3 12 18 16 33 3 16 18 48 33 73 14 25 27 55 28 67 1 12 12 31 24
43 18 18 19 24 9 36 -9 11 -10 18 -2 22 6 4 14 24 18 45 4 20 11 39 15 42 5 3
6 14 3 26 -3 12 -1 24 5 28 7 4 14 43 17 87 2 43 7 90 9 103 7 32 29 81 38 81
11 0 19 52 23 170 2 63 7 126 9 139 3 13 6 41 8 63 1 22 6 42 10 44 4 3 4 13
-1 23 -11 20 -10 53 3 63 6 4 5 12 -2 20 -7 9 -9 40 -6 87 4 59 2 77 -11 91
-11 12 -16 37 -16 76 0 35 -6 66 -16 81 -9 14 -18 49 -19 79 -1 29 -6 59 -10
66 -9 14 -11 21 -18 92 -3 27 -14 63 -25 81 -12 21 -16 37 -10 48 6 10 4 21
-7 31 -8 9 -12 16 -8 16 3 0 1 6 -5 13 -6 8 -8 17 -4 20 3 4 -2 16 -11 26 -10
11 -18 35 -18 55 0 19 -6 40 -14 47 -8 6 -17 29 -20 51 -4 21 -11 41 -15 44
-5 3 -9 16 -9 30 0 13 -4 24 -10 24 -5 0 -10 11 -10 25 0 14 -6 28 -13 31 -8
3 -14 18 -14 33 0 16 -7 37 -16 46 -9 9 -17 23 -17 31 0 8 -7 17 -16 21 -8 3
-13 12 -10 19 3 8 0 14 -8 14 -8 0 -11 10 -8 28 2 18 -2 33 -12 41 -9 8 -16
20 -16 28 0 7 -7 16 -15 19 -8 4 -15 14 -15 24 0 11 -4 22 -10 25 -5 3 -10 15
-10 26 0 11 -7 22 -15 25 -8 4 -15 14 -15 24 0 10 -6 20 -14 23 -8 3 -17 20
-21 37 -5 23 -14 32 -34 36 -20 4 -31 15 -40 40 -7 19 -17 34 -22 34 -5 0 -9
5 -9 11 0 13 -25 39 -38 39 -5 0 -13 11 -16 24 -4 15 -14 26 -28 28 -13 2 -24
11 -27 23 -2 11 -16 32 -32 46 -16 14 -29 36 -29 47 0 13 -6 22 -15 22 -8 0
-15 7 -15 15 0 8 -13 21 -30 30 -18 10 -30 23 -30 36 0 11 -4 18 -8 15 -13 -8
-26 6 -47 49 -23 47 -63 85 -87 85 -10 0 -18 5 -18 10 0 6 -16 26 -35 46 -19
19 -35 39 -35 44 0 6 -11 10 -25 10 -14 0 -25 5 -25 11 0 14 -41 48 -57 49 -7
0 -13 6 -13 13 0 18 -37 47 -59 47 -11 0 -23 9 -26 20 -3 11 -13 20 -22 20 -8
0 -30 16 -49 36 -20 20 -56 45 -80 56 -31 13 -49 29 -55 46 -10 29 -67 61
-116 66 -15 2 -29 8 -31 15 -2 6 -9 11 -16 11 -7 0 -26 13 -42 30 -16 16 -37
30 -47 30 -11 0 -21 9 -24 21 -3 11 -11 18 -18 15 -7 -2 -27 4 -44 15 -17 10
-43 19 -56 19 -14 0 -25 5 -25 10 0 6 -9 10 -20 10 -11 0 -20 5 -20 10 0 6 -7
10 -15 10 -8 0 -29 9 -47 20 -18 11 -40 20 -50 20 -9 0 -18 5 -20 11 -2 7 -24
13 -48 15 -25 1 -56 5 -70 8 -53 11 -116 29 -133 38 -11 5 -21 7 -24 4 -3 -3
-23 4 -45 15 -28 14 -43 17 -52 10 -9 -7 -16 -7 -23 0 -5 5 -34 11 -64 13 -30
2 -71 11 -92 20 -21 9 -42 14 -48 10 -5 -3 -15 -1 -22 4 -7 5 -32 10 -57 11
-91 4 -105 6 -116 20 -8 10 -15 11 -31 3 -15 -9 -25 -8 -39 3 -10 7 -23 10
-29 5 -5 -4 -31 -9 -57 -11 -38 -3 -47 -1 -45 11 2 12 -19 14 -126 15 -71 0
-131 -2 -133 -5z m1353 -640 c3 -11 10 -20 15 -20 6 0 8 -6 5 -14 -7 -18 40
-86 75 -108 23 -15 31 -15 76 -3 28 7 53 10 56 8 3 -3 11 -2 18 4 16 12 56 15
62 4 10 -15 -11 -30 -47 -35 -41 -5 -100 -57 -91 -79 2 -7 -7 -23 -22 -36 -24
-20 -25 -27 -19 -69 4 -26 11 -53 17 -59 12 -15 2 -47 -12 -38 -6 4 -8 10 -5
15 3 4 -2 10 -10 14 -8 3 -15 12 -15 20 0 9 -9 20 -20 26 -11 6 -20 18 -20 26
0 32 -24 39 -131 39 -78 0 -106 3 -106 12 0 7 6 13 13 13 7 0 20 7 29 16 8 9
22 13 30 10 10 -3 15 1 15 14 0 11 8 20 21 22 12 2 27 12 33 23 6 11 15 23 20
26 5 4 7 16 4 27 -3 10 -1 27 4 36 6 11 6 22 -1 30 -6 7 -12 22 -14 34 -2 12
-6 25 -10 28 -13 13 -7 34 9 34 9 0 18 -9 21 -20z m-2846 -207 c0 -10 2 -27 4
-38 2 -11 5 -38 7 -60 2 -32 9 -45 35 -62 18 -13 38 -23 45 -23 23 0 39 -16
32 -33 -4 -11 -14 -16 -30 -13 -13 3 -24 0 -24 -5 0 -5 -7 -9 -15 -9 -8 0 -15
-4 -15 -9 0 -5 -13 -12 -29 -16 -22 -5 -35 -17 -51 -49 -11 -24 -18 -51 -14
-60 3 -9 1 -16 -6 -16 -6 0 -8 5 -5 10 3 6 1 10 -5 10 -8 0 -10 13 -7 37 3 20
1 43 -3 52 -5 9 -11 23 -13 31 -3 8 -25 26 -51 38 -25 13 -50 31 -56 40 -5 9
-10 12 -10 5 0 -10 -6 -10 -25 -1 -37 17 -19 27 53 30 34 2 62 7 62 11 0 5 8
7 18 5 18 -4 64 40 56 54 -3 4 0 8 6 8 7 0 10 6 7 14 -3 8 0 17 8 20 8 3 11
13 8 25 -3 12 -1 21 6 21 6 0 11 -8 12 -17z m1690 3 c6 4 37 6 68 5 31 0 86
-1 123 -1 37 0 70 -5 73 -10 4 -6 15 -8 25 -5 10 3 21 1 25 -5 3 -5 22 -10 41
-10 22 0 37 -6 40 -15 5 -12 10 -13 20 -4 10 8 17 7 29 -5 9 -9 20 -16 25 -16
5 0 16 -7 24 -16 9 -9 28 -17 43 -19 14 -1 34 -13 43 -25 10 -13 22 -20 27
-17 6 4 19 -3 31 -13 14 -13 35 -20 60 -20 32 0 43 -5 57 -26 10 -15 22 -23
31 -20 8 3 20 -3 26 -14 7 -11 21 -20 31 -20 11 0 21 -9 24 -20 3 -11 14 -20
24 -20 11 0 19 -4 19 -8 0 -5 12 -14 26 -21 16 -7 24 -17 21 -25 -6 -14 28
-47 48 -47 12 0 34 -38 35 -58 0 -16 46 -61 54 -53 3 3 6 -2 6 -11 0 -9 4 -17
8 -17 4 0 16 -20 26 -45 11 -25 23 -45 28 -45 4 0 8 -7 8 -16 0 -9 14 -37 31
-63 18 -25 39 -68 48 -95 15 -47 46 -79 39 -40 -2 11 8 23 27 33 17 9 32 19
33 24 2 4 10 7 17 7 7 0 16 7 19 16 3 8 10 13 15 9 5 -3 12 -1 16 5 4 6 11 8
16 5 5 -4 9 -2 9 3 0 11 119 32 125 21 3 -4 13 -5 23 -3 23 5 127 -49 127 -67
0 -8 10 -18 23 -24 12 -5 22 -18 22 -28 0 -10 6 -20 13 -23 9 -3 13 -23 12
-62 0 -46 -4 -58 -18 -60 -9 -2 -14 -8 -11 -13 3 -6 -3 -13 -15 -16 -19 -5
-25 -15 -22 -35 0 -4 -8 -12 -19 -18 -11 -6 -20 -15 -20 -19 0 -12 82 -12 96
0 8 6 14 5 18 -6 3 -8 14 -15 24 -15 11 0 36 -16 57 -35 28 -27 34 -39 26 -49
-6 -7 -8 -16 -4 -20 16 -15 11 -48 -13 -95 -14 -28 -29 -51 -35 -51 -5 0 -9
-9 -9 -20 0 -20 -5 -26 -69 -83 -32 -30 -33 -47 -2 -47 10 0 21 -9 24 -20 3
-11 12 -20 21 -20 9 0 16 -6 16 -14 0 -8 7 -22 16 -30 10 -11 11 -16 3 -16 -8
0 -6 -7 5 -19 10 -11 15 -25 11 -31 -4 -6 -2 -16 3 -23 10 -13 10 -53 -1 -63
-4 -4 -7 -16 -7 -26 0 -10 -9 -28 -20 -40 -29 -31 -25 -50 15 -76 23 -15 38
-33 42 -52 3 -17 9 -30 13 -30 10 0 34 -60 31 -77 -1 -7 7 -23 18 -34 17 -19
20 -33 16 -102 -2 -53 -8 -82 -17 -88 -10 -7 -11 -12 0 -29 7 -11 8 -20 3 -20
-5 0 -12 -12 -16 -27 -7 -29 -72 -107 -90 -108 -25 -2 -65 -30 -65 -47 0 -13
-8 -18 -32 -20 -59 -2 -61 -3 -65 -15 -4 -10 -11 -9 -34 2 -16 9 -31 15 -34
15 -3 0 -19 7 -35 15 -17 9 -35 13 -40 10 -5 -3 -12 0 -15 6 -5 7 -14 3 -28
-12 -19 -20 -19 -23 -3 -34 21 -15 12 -65 -11 -65 -9 0 -13 -6 -10 -15 4 -8 2
-17 -3 -20 -6 -4 -10 -17 -10 -30 0 -13 -5 -27 -10 -30 -6 -4 -8 -11 -4 -16 3
-6 -4 -18 -15 -28 -12 -10 -21 -25 -21 -33 0 -18 -28 -76 -41 -83 -5 -4 -9
-12 -9 -20 0 -8 -11 -26 -25 -41 -14 -15 -25 -35 -25 -45 0 -9 -4 -19 -8 -21
-14 -6 -52 -66 -52 -82 0 -9 -5 -16 -11 -16 -6 0 -8 -8 -5 -18 4 -12 -1 -21
-17 -28 -12 -5 -21 -15 -19 -22 1 -7 -4 -12 -11 -12 -8 0 -19 -11 -25 -25 -6
-14 -16 -25 -22 -25 -5 0 -10 -9 -10 -20 0 -11 -4 -20 -10 -20 -5 0 -10 -7
-10 -15 0 -8 -4 -15 -10 -15 -5 0 -18 -17 -27 -37 -12 -25 -26 -39 -41 -41
-14 -2 -22 -10 -22 -23 0 -11 -6 -19 -12 -18 -22 4 -43 -10 -97 -62 -28 -27
-58 -49 -66 -49 -8 0 -15 -7 -15 -16 0 -10 -6 -14 -15 -10 -9 3 -15 0 -15 -9
0 -21 -31 -55 -50 -55 -8 0 -21 -9 -28 -20 -7 -11 -19 -20 -27 -20 -8 0 -15
-4 -15 -8 0 -4 -12 -8 -27 -7 -16 0 -34 -7 -41 -17 -7 -10 -19 -18 -25 -18 -7
0 -13 -10 -14 -22 -5 -52 -10 -74 -21 -101 -9 -20 -9 -34 -2 -48 7 -12 7 -19
1 -19 -6 0 -15 -19 -22 -43 -6 -23 -15 -50 -20 -59 -5 -10 -9 -29 -9 -43 0
-14 -6 -28 -14 -31 -14 -5 -27 -38 -32 -81 -2 -12 -11 -31 -21 -42 -10 -11
-29 -34 -43 -52 -14 -17 -29 -37 -35 -43 -5 -6 -10 -18 -10 -26 0 -8 -6 -15
-14 -15 -8 0 -19 -15 -23 -33 -6 -22 -17 -36 -34 -43 -22 -8 -24 -12 -13 -25
10 -12 9 -17 -9 -30 -12 -8 -22 -22 -22 -30 0 -8 -4 -14 -10 -14 -5 0 -10 -9
-10 -20 0 -10 -6 -23 -13 -27 -7 -4 -28 -39 -46 -76 -22 -47 -40 -71 -58 -78
-35 -13 -119 0 -138 21 -9 10 -24 16 -36 13 -10 -3 -19 0 -19 6 0 6 -7 11 -15
11 -8 0 -15 5 -15 10 0 6 -9 10 -19 10 -11 0 -23 5 -26 10 -4 6 -10 8 -15 5
-5 -3 -15 4 -24 16 -8 12 -19 18 -25 14 -6 -3 -11 1 -11 10 0 9 -9 19 -20 22
-11 3 -20 10 -20 17 0 6 -9 17 -20 24 -11 7 -20 22 -20 35 0 13 -13 33 -30 47
-16 14 -30 34 -30 45 0 11 -13 36 -29 56 -17 20 -33 48 -36 62 -4 15 -11 27
-16 27 -5 0 -9 5 -9 11 0 6 -9 22 -20 36 -11 14 -20 34 -20 44 0 11 -5 19 -11
19 -16 0 -41 29 -37 42 3 7 -6 23 -19 36 -13 12 -23 29 -23 37 0 8 -4 15 -9
15 -13 0 -20 37 -9 48 7 7 3 12 -10 16 -20 7 -37 47 -33 79 1 9 -6 21 -16 25
-12 5 -19 20 -21 47 -10 136 -14 150 -35 142 -7 -2 -37 7 -67 20 -30 13 -56
23 -58 21 -2 -2 -13 6 -25 18 -12 12 -32 24 -45 28 -12 4 -20 12 -17 17 4 5
-1 9 -10 9 -9 0 -31 7 -48 16 -18 9 -39 20 -47 24 -8 4 -16 17 -18 29 -2 12
-14 26 -28 31 -13 5 -40 24 -60 42 -20 18 -41 32 -46 30 -14 -4 -68 38 -68 53
0 8 -12 20 -27 27 -18 9 -28 21 -27 35 0 13 -11 26 -31 37 -19 10 -39 33 -49
57 -10 21 -22 39 -28 39 -5 0 -7 12 -3 29 4 20 1 34 -10 45 -9 9 -14 16 -10
16 3 0 -2 11 -11 25 -9 14 -14 25 -10 25 3 0 -7 19 -24 42 -16 22 -30 46 -30
53 0 7 -13 31 -30 53 -16 23 -30 54 -30 69 0 14 -7 35 -16 45 -11 11 -17 37
-18 73 0 30 -5 55 -9 55 -5 0 -7 9 -4 20 6 22 8 22 -83 26 -36 2 -90 5 -121 7
-31 1 -68 10 -82 20 -15 9 -35 17 -45 17 -10 0 -27 10 -38 21 -10 12 -30 25
-43 30 -15 6 -21 15 -17 25 3 9 -5 25 -21 40 -16 15 -21 24 -12 24 10 1 9 4
-4 11 -9 6 -15 14 -13 18 3 4 -1 30 -8 57 -14 55 -11 193 6 236 6 15 8 35 4
43 -3 9 3 25 14 37 11 12 20 30 20 39 0 10 18 32 40 49 43 34 48 60 23 110
-17 33 -16 61 2 87 8 12 12 28 9 37 -4 11 4 17 30 22 21 3 36 12 36 20 0 8 10
14 23 14 36 0 48 18 30 46 -8 13 -23 24 -33 24 -10 0 -23 7 -30 15 -7 8 -9 15
-4 15 5 0 -7 8 -26 18 -22 10 -36 26 -38 40 -2 12 -10 22 -18 22 -10 0 -15 8
-13 23 1 12 -1 29 -5 39 -4 9 0 30 9 47 9 18 14 35 11 40 -8 12 23 51 40 51 8
0 14 9 14 20 0 13 7 20 19 20 11 0 22 4 26 10 3 5 12 7 19 4 8 -3 17 -1 21 5
3 6 24 11 45 11 21 0 42 5 46 11 8 14 -27 79 -42 79 -7 0 -10 8 -7 19 3 11 -2
21 -12 25 -9 3 -13 11 -10 17 4 5 -1 19 -10 29 -9 10 -14 24 -9 31 5 8 3 10
-6 4 -10 -6 -12 -3 -8 13 4 12 2 25 -4 28 -5 3 -7 13 -4 21 3 8 1 23 -5 35
-13 24 12 58 43 58 10 0 28 5 41 12 55 28 57 29 63 13 3 -8 11 -12 17 -8 17
10 50 12 66 3 7 -4 29 -4 47 0 19 4 36 4 39 -1 3 -4 12 -6 19 -3 8 3 17 1 20
-4 3 -5 16 -7 30 -5 13 3 27 0 30 -6 4 -6 16 -11 27 -11 10 0 19 -3 19 -7 0
-5 11 -13 25 -20 22 -10 25 -9 25 6 0 10 11 31 25 47 14 16 25 35 25 42 0 6 5
12 10 12 6 0 10 9 10 20 0 11 4 20 10 20 5 0 12 11 16 25 3 14 12 25 20 25 8
0 14 9 14 19 0 12 9 21 25 25 14 4 23 11 20 16 -3 6 8 25 24 42 17 18 31 36
31 40 0 4 18 17 40 28 22 11 40 27 40 35 0 9 11 20 25 25 14 5 25 17 25 25 0
9 8 19 18 22 9 4 25 16 36 27 10 12 22 20 27 19 5 -2 9 2 9 7 0 6 9 10 20 10
11 0 20 7 20 15 0 9 9 15 23 15 13 0 32 8 43 19 12 10 35 22 52 26 18 3 35 12
39 19 9 14 90 41 114 37 9 -1 19 6 23 15 4 9 12 14 21 10 8 -3 28 0 43 6 15 6
33 10 40 9 8 -1 20 3 28 10 8 6 14 8 14 4 0 -4 6 -2 14 4 8 7 45 13 83 15 37
2 75 6 83 9 35 12 88 15 99 4 8 -8 16 -6 29 6 15 14 24 15 48 6 22 -9 37 -8
64 3 23 10 39 12 47 6 7 -5 17 -6 24 -2z m-1505 -206 c18 -7 24 -14 17 -21
-14 -14 -63 0 -63 17 0 17 10 17 46 4z m-1081 -1888 c-4 -15 -10 -29 -15 -32
-5 -3 -11 -17 -15 -31 -5 -21 -1 -31 20 -47 15 -12 24 -26 20 -32 -6 -9 8 -14
28 -11 11 2 46 -41 47 -56 0 -19 -14 -16 -40 7 -13 12 -29 19 -36 16 -7 -3
-14 4 -17 15 -5 20 -32 26 -42 9 -3 -5 -17 -10 -29 -10 -13 0 -40 -11 -61 -25
-42 -29 -54 -26 -37 8 6 12 14 41 17 63 6 38 4 42 -19 48 -17 4 -32 19 -43 44
-9 20 -19 40 -21 45 -2 4 4 7 12 7 9 0 19 -7 22 -15 4 -8 10 -13 14 -10 4 3
27 -1 51 -8 43 -13 45 -13 89 18 50 36 65 35 55 -3z m5312 -457 c-10 -7 -20
-28 -22 -46 -3 -18 -9 -37 -14 -42 -10 -10 -3 -47 10 -47 5 0 9 -9 9 -20 0
-12 7 -20 18 -20 25 -1 73 -53 62 -69 -12 -21 -43 -5 -35 18 5 17 0 21 -27 25
-71 11 -98 12 -98 4 0 -4 -3 -7 -7 -6 -14 4 -53 -13 -53 -23 0 -5 -6 -9 -14
-9 -19 0 -16 68 3 80 11 6 9 10 -7 19 -11 6 -24 21 -28 33 -3 13 -15 31 -25
41 -27 26 -24 45 6 39 14 -2 25 -8 25 -11 0 -4 6 -8 13 -9 6 0 29 -3 49 -6 34
-5 41 -2 84 40 35 35 49 43 58 34 8 -8 7 -15 -7 -25z m-4626 -805 c10 -6 19
-17 19 -26 0 -20 48 -95 59 -91 5 1 18 -9 29 -21 17 -19 27 -22 51 -17 34 7
71 -1 71 -16 0 -5 -11 -9 -25 -9 -14 0 -29 -8 -35 -20 -6 -11 -20 -20 -30 -20
-11 0 -20 -6 -20 -14 0 -8 -10 -27 -23 -43 -30 -36 -38 -58 -26 -70 14 -14 0
-63 -17 -63 -12 0 -19 14 -12 23 1 1 -9 14 -22 29 -41 44 -49 55 -56 83 -5 19
-11 24 -23 19 -9 -4 -44 -8 -78 -9 -56 -2 -63 0 -63 17 0 11 4 17 9 13 5 -3
16 2 25 10 8 9 31 22 50 30 19 8 39 22 44 31 5 9 13 15 18 15 5 0 9 7 10 17 0
9 9 34 19 54 17 34 17 38 1 53 -30 31 -15 46 25 25z m3737 -277 c6 -15 12 -33
12 -40 0 -7 7 -13 15 -13 8 0 15 -5 15 -12 0 -20 43 -58 66 -58 12 0 24 -5 26
-11 2 -7 12 -7 32 1 16 6 35 9 42 6 7 -3 15 2 18 10 8 20 76 19 76 -1 0 -9 -6
-15 -12 -14 -43 6 -128 -41 -128 -70 0 -6 -8 -23 -17 -38 -10 -14 -18 -33 -20
-42 -1 -9 -6 -17 -12 -19 -12 -4 -3 -55 16 -92 8 -16 9 -26 2 -29 -11 -3 -30
18 -51 59 -7 14 -25 37 -40 52 -25 25 -31 26 -77 19 -27 -4 -55 -5 -60 -1 -6
3 -31 5 -56 5 -25 -1 -45 2 -45 7 0 4 20 17 45 29 25 12 43 25 40 29 -8 13 25
28 46 23 14 -4 19 0 19 16 0 12 6 21 15 21 8 0 16 6 16 13 4 34 -4 103 -13
115 -6 6 -7 12 -3 12 4 0 2 7 -5 15 -6 8 -9 19 -5 25 11 18 30 11 43 -17z"/>
<path d="M2569 4074 c-6 -8 -22 -14 -35 -14 -12 0 -29 -9 -36 -19 -8 -11 -23
-19 -33 -18 -14 1 -21 -5 -23 -21 -2 -15 -8 -22 -18 -18 -8 3 -20 -6 -29 -24
-9 -17 -20 -30 -25 -30 -6 0 -10 -7 -10 -15 0 -8 -9 -24 -21 -36 -17 -17 -18
-23 -7 -37 8 -10 9 -13 1 -9 -15 10 -36 -29 -30 -54 3 -10 1 -22 -4 -25 -15
-9 9 -41 36 -48 18 -5 32 -1 47 14 12 11 25 20 30 20 4 0 8 8 8 18 0 11 9 27
20 37 11 10 22 25 25 34 6 19 59 51 85 51 10 0 20 9 23 21 3 12 10 18 16 14 6
-3 23 6 38 21 l26 26 48 -23 c27 -13 49 -29 49 -36 0 -38 94 -51 130 -18 29
26 2 115 -35 115 -7 0 -21 11 -31 25 -10 14 -27 25 -36 25 -10 0 -18 5 -18 11
0 5 -4 7 -10 4 -5 -3 -18 -2 -28 4 -32 17 -140 21 -153 5z"/>
<path d="M3885 4063 c-8 -8 -19 -11 -25 -8 -5 3 -10 -1 -10 -11 0 -11 -6 -15
-20 -11 -15 4 -20 0 -20 -13 0 -11 -11 -30 -25 -44 -17 -17 -25 -36 -25 -58 0
-47 13 -61 58 -65 35 -3 44 1 76 33 20 20 46 42 58 48 26 13 100 4 106 -13 2
-6 11 -11 20 -11 8 0 12 -3 9 -7 -4 -3 9 -16 28 -28 20 -11 43 -36 53 -55 9
-19 20 -33 23 -30 4 3 16 -3 28 -14 11 -10 29 -16 40 -13 10 2 25 1 32 -4 28
-17 41 11 34 74 -6 47 -13 66 -35 87 -15 15 -33 37 -39 49 -7 13 -21 21 -37
21 -14 0 -23 4 -20 9 6 9 -9 18 -28 19 -5 0 -13 7 -17 15 -5 8 -29 18 -54 21
-24 4 -47 11 -50 17 -10 15 -144 9 -160 -8z"/>
<path d="M3112 3490 c-37 -31 -45 -53 -30 -85 17 -37 69 -56 156 -58 77 -1
142 19 142 44 0 6 4 8 9 5 15 -10 32 43 20 62 -19 31 -112 61 -125 41 -4 -8
-9 -7 -15 2 -5 8 -30 14 -68 14 -50 1 -64 -3 -89 -25z"/>
<path d="M4865 3100 c-3 -5 -1 -10 4 -10 6 0 11 5 11 10 0 6 -2 10 -4 10 -3 0
-8 -4 -11 -10z"/>
<path d="M3565 2771 c3 -5 -4 -12 -15 -16 -11 -3 -20 -11 -20 -16 0 -15 -21
-34 -58 -53 -18 -9 -32 -21 -32 -27 0 -6 -8 -9 -17 -8 -10 1 -25 -1 -33 -4 -8
-4 -34 -9 -58 -11 -32 -4 -44 -1 -49 9 -3 10 -13 13 -29 9 -15 -4 -31 -1 -42
8 -9 8 -32 21 -49 29 -18 8 -33 17 -33 21 0 3 -20 16 -44 27 -33 16 -49 19
-67 12 -13 -5 -19 -10 -14 -11 6 0 4 -4 -4 -9 -12 -8 -12 -12 -3 -24 7 -8 12
-19 11 -23 -1 -5 -1 -24 0 -42 1 -29 4 -32 21 -27 22 7 53 -11 45 -25 -3 -5 4
-6 15 -3 12 3 22 -1 26 -11 3 -9 10 -13 16 -10 5 3 18 -2 29 -12 10 -9 19 -13
19 -8 0 5 4 3 9 -5 5 -7 22 -14 38 -15 16 -2 34 -6 40 -9 16 -10 156 -5 171 6
6 5 26 12 43 16 16 3 30 9 30 13 0 14 63 78 76 78 7 0 13 7 13 15 0 8 7 15 15
15 18 0 38 37 28 53 -4 6 -8 18 -9 25 -2 8 -11 20 -21 28 -20 15 -57 19 -48 5z"/>
</g>
</svg>
